<?xml version="1.0" encoding="UTF-8" standalone="no"?>
<svg
   xmlns:dc="http://purl.org/dc/elements/1.1/"
   xmlns:cc="http://creativecommons.org/ns#"
   xmlns:rdf="http://www.w3.org/1999/02/22-rdf-syntax-ns#"
   xmlns:svg="http://www.w3.org/2000/svg"
   xmlns="http://www.w3.org/2000/svg"
   xmlns:sodipodi="http://sodipodi.sourceforge.net/DTD/sodipodi-0.dtd"
   xmlns:inkscape="http://www.inkscape.org/namespaces/inkscape"
   version="1.1"
   id="svg2"
   xml:space="preserve"
   width="384"
   height="384"
   viewBox="0 0 384 384"
   sodipodi:docname="backgroundots.svg"
   inkscape:version="1.0.2 (e86c870879, 2021-01-15)"><metadata
     id="metadata8"><rdf:RDF><cc:Work
         rdf:about=""><dc:format>image/svg+xml</dc:format><dc:type
           rdf:resource="http://purl.org/dc/dcmitype/StillImage" /><dc:title></dc:title></cc:Work></rdf:RDF></metadata><defs
     id="defs6" /><sodipodi:namedview
     pagecolor="#ffffff"
     bordercolor="#666666"
     borderopacity="1"
     objecttolerance="10"
     gridtolerance="10"
     guidetolerance="10"
     inkscape:pageopacity="0"
     inkscape:pageshadow="2"
     inkscape:window-width="1366"
     inkscape:window-height="676"
     id="namedview4"
     showgrid="false"
     inkscape:zoom="1.2373569"
     inkscape:cx="192"
     inkscape:cy="210.30389"
     inkscape:window-x="0"
     inkscape:window-y="27"
     inkscape:window-maximized="1"
     inkscape:current-layer="g12" /><g
     id="g10"
     inkscape:groupmode="layer"
     inkscape:label="ink_ext_XXXXXX"
     transform="matrix(1.3333333,0,0,-1.3333333,0,384)"><g
       id="g12"
       transform="scale(0.1)"><path
         d="m 44.0625,2723.34 c 7.0508,0 12.7734,5.72 12.7734,12.77 0,7.06 -5.7226,12.78 -12.7734,12.78 -7.0586,0 -12.7812,-5.72 -12.7812,-12.78 0,-7.05 5.7226,-12.77 12.7812,-12.77"
         style="fill:#100f0d;fill-opacity:1;fill-rule:nonzero;stroke:none"
         id="path56" /><path
         d="m 188.059,2723.34 c 7.058,0 12.781,5.72 12.781,12.77 0,7.06 -5.723,12.78 -12.781,12.78 -7.051,0 -12.778,-5.72 -12.778,-12.78 0,-7.05 5.727,-12.77 12.778,-12.77"
         style="fill:#100f0d;fill-opacity:1;fill-rule:nonzero;stroke:none"
         id="path58" /><path
         d="m 332.063,2723.34 c 7.058,0 12.781,5.72 12.781,12.77 0,7.06 -5.723,12.78 -12.781,12.78 -7.063,0 -12.786,-5.72 -12.786,-12.78 0,-7.05 5.723,-12.77 12.786,-12.77"
         style="fill:#100f0d;fill-opacity:1;fill-rule:nonzero;stroke:none"
         id="path60" /><path
         d="m 476.063,2723.34 c 7.05,0 12.777,5.72 12.777,12.77 0,7.06 -5.727,12.78 -12.777,12.78 -7.059,0 -12.782,-5.72 -12.782,-12.78 0,-7.05 5.723,-12.77 12.782,-12.77"
         style="fill:#100f0d;fill-opacity:1;fill-rule:nonzero;stroke:none"
         id="path62" /><path
         d="m 620.059,2723.34 c 7.058,0 12.785,5.72 12.785,12.77 0,7.06 -5.727,12.78 -12.785,12.78 -7.051,0 -12.774,-5.72 -12.774,-12.78 0,-7.05 5.723,-12.77 12.774,-12.77"
         style="fill:#100f0d;fill-opacity:1;fill-rule:nonzero;stroke:none"
         id="path64" /><path
         d="m 764.063,2723.34 c 7.05,0 12.773,5.72 12.773,12.77 0,7.06 -5.723,12.78 -12.773,12.78 -7.059,0 -12.786,-5.72 -12.786,-12.78 0,-7.05 5.727,-12.77 12.786,-12.77"
         style="fill:#100f0d;fill-opacity:1;fill-rule:nonzero;stroke:none"
         id="path66" /><path
         d="m 908.059,2723.34 c 7.058,0 12.781,5.72 12.781,12.77 0,7.06 -5.723,12.78 -12.781,12.78 -7.051,0 -12.778,-5.72 -12.778,-12.78 0,-7.05 5.727,-12.77 12.778,-12.77"
         style="fill:#100f0d;fill-opacity:1;fill-rule:nonzero;stroke:none"
         id="path68" /><path
         d="m 1052.06,2723.34 c 7.06,0 12.78,5.72 12.78,12.77 0,7.06 -5.72,12.78 -12.78,12.78 -7.06,0 -12.78,-5.72 -12.78,-12.78 0,-7.05 5.72,-12.77 12.78,-12.77"
         style="fill:#100f0d;fill-opacity:1;fill-rule:nonzero;stroke:none"
         id="path70" /><path
         d="m 1196.06,2723.34 c 7.06,0 12.78,5.72 12.78,12.77 0,7.06 -5.72,12.78 -12.78,12.78 -7.06,0 -12.78,-5.72 -12.78,-12.78 0,-7.05 5.72,-12.77 12.78,-12.77"
         style="fill:#100f0d;fill-opacity:1;fill-rule:nonzero;stroke:none"
         id="path72" /><path
         d="m 1340.06,2723.34 c 7.06,0 12.78,5.72 12.78,12.77 0,7.06 -5.72,12.78 -12.78,12.78 -7.05,0 -12.77,-5.72 -12.77,-12.78 0,-7.05 5.72,-12.77 12.77,-12.77"
         style="fill:#100f0d;fill-opacity:1;fill-rule:nonzero;stroke:none"
         id="path74" /><path
         d="m 1484.06,2723.34 c 7.05,0 12.78,5.72 12.78,12.77 0,7.06 -5.73,12.78 -12.78,12.78 -7.06,0 -12.78,-5.72 -12.78,-12.78 0,-7.05 5.72,-12.77 12.78,-12.77"
         style="fill:#100f0d;fill-opacity:1;fill-rule:nonzero;stroke:none"
         id="path76" /><path
         d="m 1628.06,2723.34 c 7.06,0 12.78,5.72 12.78,12.77 0,7.06 -5.72,12.78 -12.78,12.78 -7.05,0 -12.78,-5.72 -12.78,-12.78 0,-7.05 5.73,-12.77 12.78,-12.77"
         style="fill:#100f0d;fill-opacity:1;fill-rule:nonzero;stroke:none"
         id="path78" /><path
         d="m 1772.06,2723.34 c 7.06,0 12.78,5.72 12.78,12.77 0,7.06 -5.72,12.78 -12.78,12.78 -7.06,0 -12.78,-5.72 -12.78,-12.78 0,-7.05 5.72,-12.77 12.78,-12.77"
         style="fill:#100f0d;fill-opacity:1;fill-rule:nonzero;stroke:none"
         id="path80" /><path
         d="m 1916.06,2723.34 c 7.06,0 12.78,5.72 12.78,12.77 0,7.06 -5.72,12.78 -12.78,12.78 -7.06,0 -12.78,-5.72 -12.78,-12.78 0,-7.05 5.72,-12.77 12.78,-12.77"
         style="fill:#100f0d;fill-opacity:1;fill-rule:nonzero;stroke:none"
         id="path82" /><path
         d="m 2060.06,2723.34 c 7.06,0 12.78,5.72 12.78,12.77 0,7.06 -5.72,12.78 -12.78,12.78 -7.05,0 -12.77,-5.72 -12.77,-12.78 0,-7.05 5.72,-12.77 12.77,-12.77"
         style="fill:#100f0d;fill-opacity:1;fill-rule:nonzero;stroke:none"
         id="path84" /><path
         d="m 2204.06,2723.34 c 7.05,0 12.78,5.72 12.78,12.77 0,7.06 -5.73,12.78 -12.78,12.78 -7.06,0 -12.78,-5.72 -12.78,-12.78 0,-7.05 5.72,-12.77 12.78,-12.77"
         style="fill:#100f0d;fill-opacity:1;fill-rule:nonzero;stroke:none"
         id="path86" /><path
         d="m 2348.06,2723.34 c 7.06,0 12.78,5.72 12.78,12.77 0,7.06 -5.72,12.78 -12.78,12.78 -7.05,0 -12.78,-5.72 -12.78,-12.78 0,-7.05 5.73,-12.77 12.78,-12.77"
         style="fill:#100f0d;fill-opacity:1;fill-rule:nonzero;stroke:none"
         id="path88" /><path
         d="m 2492.06,2723.34 c 7.06,0 12.78,5.72 12.78,12.77 0,7.06 -5.72,12.78 -12.78,12.78 -7.06,0 -12.78,-5.72 -12.78,-12.78 0,-7.05 5.72,-12.77 12.78,-12.77"
         style="fill:#100f0d;fill-opacity:1;fill-rule:nonzero;stroke:none"
         id="path90" /><path
         d="m 2636.06,2723.34 c 7.06,0 12.78,5.72 12.78,12.77 0,7.06 -5.72,12.78 -12.78,12.78 -7.06,0 -12.78,-5.72 -12.78,-12.78 0,-7.05 5.72,-12.77 12.78,-12.77"
         style="fill:#100f0d;fill-opacity:1;fill-rule:nonzero;stroke:none"
         id="path92" /><path
         d="m 2780.06,2723.34 c 7.06,0 12.78,5.72 12.78,12.77 0,7.06 -5.72,12.78 -12.78,12.78 -7.05,0 -12.77,-5.72 -12.77,-12.78 0,-7.05 5.72,-12.77 12.77,-12.77"
         style="fill:#100f0d;fill-opacity:1;fill-rule:nonzero;stroke:none"
         id="path94" /><path
         d="m 44.0625,2435.34 c 7.0508,0 12.7734,5.71 12.7734,12.77 0,7.06 -5.7226,12.78 -12.7734,12.78 -7.0586,0 -12.7812,-5.72 -12.7812,-12.78 0,-7.06 5.7226,-12.77 12.7812,-12.77"
         style="fill:#100f0d;fill-opacity:1;fill-rule:nonzero;stroke:none"
         id="path136" /><path
         d="m 188.059,2435.34 c 7.058,0 12.781,5.71 12.781,12.77 0,7.06 -5.723,12.78 -12.781,12.78 -7.051,0 -12.778,-5.72 -12.778,-12.78 0,-7.06 5.727,-12.77 12.778,-12.77"
         style="fill:#100f0d;fill-opacity:1;fill-rule:nonzero;stroke:none"
         id="path138" /><path
         d="m 332.063,2435.34 c 7.058,0 12.781,5.71 12.781,12.77 0,7.06 -5.723,12.78 -12.781,12.78 -7.063,0 -12.786,-5.72 -12.786,-12.78 0,-7.06 5.723,-12.77 12.786,-12.77"
         style="fill:#100f0d;fill-opacity:1;fill-rule:nonzero;stroke:none"
         id="path140" /><path
         d="m 476.063,2435.34 c 7.05,0 12.777,5.71 12.777,12.77 0,7.06 -5.727,12.78 -12.777,12.78 -7.059,0 -12.782,-5.72 -12.782,-12.78 0,-7.06 5.723,-12.77 12.782,-12.77"
         style="fill:#100f0d;fill-opacity:1;fill-rule:nonzero;stroke:none"
         id="path142" /><path
         d="m 620.059,2435.34 c 7.058,0 12.785,5.71 12.785,12.77 0,7.06 -5.727,12.78 -12.785,12.78 -7.051,0 -12.774,-5.72 -12.774,-12.78 0,-7.06 5.723,-12.77 12.774,-12.77"
         style="fill:#100f0d;fill-opacity:1;fill-rule:nonzero;stroke:none"
         id="path144" /><path
         d="m 764.063,2435.34 c 7.05,0 12.773,5.71 12.773,12.77 0,7.06 -5.723,12.78 -12.773,12.78 -7.059,0 -12.786,-5.72 -12.786,-12.78 0,-7.06 5.727,-12.77 12.786,-12.77"
         style="fill:#100f0d;fill-opacity:1;fill-rule:nonzero;stroke:none"
         id="path146" /><path
         d="m 908.059,2435.34 c 7.058,0 12.781,5.71 12.781,12.77 0,7.06 -5.723,12.78 -12.781,12.78 -7.051,0 -12.778,-5.72 -12.778,-12.78 0,-7.06 5.727,-12.77 12.778,-12.77"
         style="fill:#100f0d;fill-opacity:1;fill-rule:nonzero;stroke:none"
         id="path148" /><path
         d="m 1052.06,2435.34 c 7.06,0 12.78,5.71 12.78,12.77 0,7.06 -5.72,12.78 -12.78,12.78 -7.06,0 -12.78,-5.72 -12.78,-12.78 0,-7.06 5.72,-12.77 12.78,-12.77"
         style="fill:#100f0d;fill-opacity:1;fill-rule:nonzero;stroke:none"
         id="path150" /><path
         d="m 1196.06,2435.34 c 7.06,0 12.78,5.71 12.78,12.77 0,7.06 -5.72,12.78 -12.78,12.78 -7.06,0 -12.78,-5.72 -12.78,-12.78 0,-7.06 5.72,-12.77 12.78,-12.77"
         style="fill:#100f0d;fill-opacity:1;fill-rule:nonzero;stroke:none"
         id="path152" /><path
         d="m 1340.06,2435.34 c 7.06,0 12.78,5.71 12.78,12.77 0,7.06 -5.72,12.78 -12.78,12.78 -7.05,0 -12.77,-5.72 -12.77,-12.78 0,-7.06 5.72,-12.77 12.77,-12.77"
         style="fill:#100f0d;fill-opacity:1;fill-rule:nonzero;stroke:none"
         id="path154" /><path
         d="m 1484.06,2435.34 c 7.05,0 12.78,5.71 12.78,12.77 0,7.06 -5.73,12.78 -12.78,12.78 -7.06,0 -12.78,-5.72 -12.78,-12.78 0,-7.06 5.72,-12.77 12.78,-12.77"
         style="fill:#100f0d;fill-opacity:1;fill-rule:nonzero;stroke:none"
         id="path156" /><path
         d="m 1628.06,2435.34 c 7.06,0 12.78,5.71 12.78,12.77 0,7.06 -5.72,12.78 -12.78,12.78 -7.05,0 -12.78,-5.72 -12.78,-12.78 0,-7.06 5.73,-12.77 12.78,-12.77"
         style="fill:#100f0d;fill-opacity:1;fill-rule:nonzero;stroke:none"
         id="path158" /><path
         d="m 1772.06,2435.34 c 7.06,0 12.78,5.71 12.78,12.77 0,7.06 -5.72,12.78 -12.78,12.78 -7.06,0 -12.78,-5.72 -12.78,-12.78 0,-7.06 5.72,-12.77 12.78,-12.77"
         style="fill:#100f0d;fill-opacity:1;fill-rule:nonzero;stroke:none"
         id="path160" /><path
         d="m 1916.06,2435.34 c 7.06,0 12.78,5.71 12.78,12.77 0,7.06 -5.72,12.78 -12.78,12.78 -7.06,0 -12.78,-5.72 -12.78,-12.78 0,-7.06 5.72,-12.77 12.78,-12.77"
         style="fill:#100f0d;fill-opacity:1;fill-rule:nonzero;stroke:none"
         id="path162" /><path
         d="m 2060.06,2435.34 c 7.06,0 12.78,5.71 12.78,12.77 0,7.06 -5.72,12.78 -12.78,12.78 -7.05,0 -12.77,-5.72 -12.77,-12.78 0,-7.06 5.72,-12.77 12.77,-12.77"
         style="fill:#100f0d;fill-opacity:1;fill-rule:nonzero;stroke:none"
         id="path164" /><path
         d="m 2204.06,2435.34 c 7.05,0 12.78,5.71 12.78,12.77 0,7.06 -5.73,12.78 -12.78,12.78 -7.06,0 -12.78,-5.72 -12.78,-12.78 0,-7.06 5.72,-12.77 12.78,-12.77"
         style="fill:#100f0d;fill-opacity:1;fill-rule:nonzero;stroke:none"
         id="path166" /><path
         d="m 2348.06,2435.34 c 7.06,0 12.78,5.71 12.78,12.77 0,7.06 -5.72,12.78 -12.78,12.78 -7.05,0 -12.78,-5.72 -12.78,-12.78 0,-7.06 5.73,-12.77 12.78,-12.77"
         style="fill:#100f0d;fill-opacity:1;fill-rule:nonzero;stroke:none"
         id="path168" /><path
         d="m 2492.06,2435.34 c 7.06,0 12.78,5.71 12.78,12.77 0,7.06 -5.72,12.78 -12.78,12.78 -7.06,0 -12.78,-5.72 -12.78,-12.78 0,-7.06 5.72,-12.77 12.78,-12.77"
         style="fill:#100f0d;fill-opacity:1;fill-rule:nonzero;stroke:none"
         id="path170" /><path
         d="m 2636.06,2435.34 c 7.06,0 12.78,5.71 12.78,12.77 0,7.06 -5.72,12.78 -12.78,12.78 -7.06,0 -12.78,-5.72 -12.78,-12.78 0,-7.06 5.72,-12.77 12.78,-12.77"
         style="fill:#100f0d;fill-opacity:1;fill-rule:nonzero;stroke:none"
         id="path172" /><path
         d="m 2780.06,2435.34 c 7.06,0 12.78,5.71 12.78,12.77 0,7.06 -5.72,12.78 -12.78,12.78 -7.05,0 -12.77,-5.72 -12.77,-12.78 0,-7.06 5.72,-12.77 12.77,-12.77"
         style="fill:#100f0d;fill-opacity:1;fill-rule:nonzero;stroke:none"
         id="path174" /><path
         d="m 44.0625,2147.34 c 7.0508,0 12.7734,5.72 12.7734,12.77 0,7.06 -5.7226,12.78 -12.7734,12.78 -7.0586,0 -12.7812,-5.72 -12.7812,-12.78 0,-7.05 5.7226,-12.77 12.7812,-12.77"
         style="fill:#100f0d;fill-opacity:1;fill-rule:nonzero;stroke:none"
         id="path216" /><path
         d="m 188.059,2147.34 c 7.058,0 12.781,5.72 12.781,12.77 0,7.06 -5.723,12.78 -12.781,12.78 -7.051,0 -12.778,-5.72 -12.778,-12.78 0,-7.05 5.727,-12.77 12.778,-12.77"
         style="fill:#100f0d;fill-opacity:1;fill-rule:nonzero;stroke:none"
         id="path218" /><path
         d="m 332.063,2147.34 c 7.058,0 12.781,5.72 12.781,12.77 0,7.06 -5.723,12.78 -12.781,12.78 -7.063,0 -12.786,-5.72 -12.786,-12.78 0,-7.05 5.723,-12.77 12.786,-12.77"
         style="fill:#100f0d;fill-opacity:1;fill-rule:nonzero;stroke:none"
         id="path220" /><path
         d="m 476.063,2147.34 c 7.05,0 12.777,5.72 12.777,12.77 0,7.06 -5.727,12.78 -12.777,12.78 -7.059,0 -12.782,-5.72 -12.782,-12.78 0,-7.05 5.723,-12.77 12.782,-12.77"
         style="fill:#100f0d;fill-opacity:1;fill-rule:nonzero;stroke:none"
         id="path222" /><path
         d="m 620.059,2147.34 c 7.058,0 12.785,5.72 12.785,12.77 0,7.06 -5.727,12.78 -12.785,12.78 -7.051,0 -12.774,-5.72 -12.774,-12.78 0,-7.05 5.723,-12.77 12.774,-12.77"
         style="fill:#100f0d;fill-opacity:1;fill-rule:nonzero;stroke:none"
         id="path224" /><path
         d="m 764.063,2147.34 c 7.05,0 12.773,5.72 12.773,12.77 0,7.06 -5.723,12.78 -12.773,12.78 -7.059,0 -12.786,-5.72 -12.786,-12.78 0,-7.05 5.727,-12.77 12.786,-12.77"
         style="fill:#100f0d;fill-opacity:1;fill-rule:nonzero;stroke:none"
         id="path226" /><path
         d="m 908.059,2147.34 c 7.058,0 12.781,5.72 12.781,12.77 0,7.06 -5.723,12.78 -12.781,12.78 -7.051,0 -12.778,-5.72 -12.778,-12.78 0,-7.05 5.727,-12.77 12.778,-12.77"
         style="fill:#100f0d;fill-opacity:1;fill-rule:nonzero;stroke:none"
         id="path228" /><path
         d="m 1052.06,2147.34 c 7.06,0 12.78,5.72 12.78,12.77 0,7.06 -5.72,12.78 -12.78,12.78 -7.06,0 -12.78,-5.72 -12.78,-12.78 0,-7.05 5.72,-12.77 12.78,-12.77"
         style="fill:#100f0d;fill-opacity:1;fill-rule:nonzero;stroke:none"
         id="path230" /><path
         d="m 1196.06,2147.34 c 7.06,0 12.78,5.72 12.78,12.77 0,7.06 -5.72,12.78 -12.78,12.78 -7.06,0 -12.78,-5.72 -12.78,-12.78 0,-7.05 5.72,-12.77 12.78,-12.77"
         style="fill:#100f0d;fill-opacity:1;fill-rule:nonzero;stroke:none"
         id="path232" /><path
         d="m 1340.06,2147.34 c 7.06,0 12.78,5.72 12.78,12.77 0,7.06 -5.72,12.78 -12.78,12.78 -7.05,0 -12.77,-5.72 -12.77,-12.78 0,-7.05 5.72,-12.77 12.77,-12.77"
         style="fill:#100f0d;fill-opacity:1;fill-rule:nonzero;stroke:none"
         id="path234" /><path
         d="m 1484.06,2147.34 c 7.05,0 12.78,5.72 12.78,12.77 0,7.06 -5.73,12.78 -12.78,12.78 -7.06,0 -12.78,-5.72 -12.78,-12.78 0,-7.05 5.72,-12.77 12.78,-12.77"
         style="fill:#100f0d;fill-opacity:1;fill-rule:nonzero;stroke:none"
         id="path236" /><path
         d="m 1628.06,2147.34 c 7.06,0 12.78,5.72 12.78,12.77 0,7.06 -5.72,12.78 -12.78,12.78 -7.05,0 -12.78,-5.72 -12.78,-12.78 0,-7.05 5.73,-12.77 12.78,-12.77"
         style="fill:#100f0d;fill-opacity:1;fill-rule:nonzero;stroke:none"
         id="path238" /><path
         d="m 1772.06,2147.34 c 7.06,0 12.78,5.72 12.78,12.77 0,7.06 -5.72,12.78 -12.78,12.78 -7.06,0 -12.78,-5.72 -12.78,-12.78 0,-7.05 5.72,-12.77 12.78,-12.77"
         style="fill:#100f0d;fill-opacity:1;fill-rule:nonzero;stroke:none"
         id="path240" /><path
         d="m 1916.06,2147.34 c 7.06,0 12.78,5.72 12.78,12.77 0,7.06 -5.72,12.78 -12.78,12.78 -7.06,0 -12.78,-5.72 -12.78,-12.78 0,-7.05 5.72,-12.77 12.78,-12.77"
         style="fill:#100f0d;fill-opacity:1;fill-rule:nonzero;stroke:none"
         id="path242" /><path
         d="m 2060.06,2147.34 c 7.06,0 12.78,5.72 12.78,12.77 0,7.06 -5.72,12.78 -12.78,12.78 -7.05,0 -12.77,-5.72 -12.77,-12.78 0,-7.05 5.72,-12.77 12.77,-12.77"
         style="fill:#100f0d;fill-opacity:1;fill-rule:nonzero;stroke:none"
         id="path244" /><path
         d="m 2204.06,2147.34 c 7.05,0 12.78,5.72 12.78,12.77 0,7.06 -5.73,12.78 -12.78,12.78 -7.06,0 -12.78,-5.72 -12.78,-12.78 0,-7.05 5.72,-12.77 12.78,-12.77"
         style="fill:#100f0d;fill-opacity:1;fill-rule:nonzero;stroke:none"
         id="path246" /><path
         d="m 2348.06,2147.34 c 7.06,0 12.78,5.72 12.78,12.77 0,7.06 -5.72,12.78 -12.78,12.78 -7.05,0 -12.78,-5.72 -12.78,-12.78 0,-7.05 5.73,-12.77 12.78,-12.77"
         style="fill:#100f0d;fill-opacity:1;fill-rule:nonzero;stroke:none"
         id="path248" /><path
         d="m 2492.06,2147.34 c 7.06,0 12.78,5.72 12.78,12.77 0,7.06 -5.72,12.78 -12.78,12.78 -7.06,0 -12.78,-5.72 -12.78,-12.78 0,-7.05 5.72,-12.77 12.78,-12.77"
         style="fill:#100f0d;fill-opacity:1;fill-rule:nonzero;stroke:none"
         id="path250" /><path
         d="m 2636.06,2147.34 c 7.06,0 12.78,5.72 12.78,12.77 0,7.06 -5.72,12.78 -12.78,12.78 -7.06,0 -12.78,-5.72 -12.78,-12.78 0,-7.05 5.72,-12.77 12.78,-12.77"
         style="fill:#100f0d;fill-opacity:1;fill-rule:nonzero;stroke:none"
         id="path252" /><path
         d="m 2780.06,2147.34 c 7.06,0 12.78,5.72 12.78,12.77 0,7.06 -5.72,12.78 -12.78,12.78 -7.05,0 -12.77,-5.72 -12.77,-12.78 0,-7.05 5.72,-12.77 12.77,-12.77"
         style="fill:#100f0d;fill-opacity:1;fill-rule:nonzero;stroke:none"
         id="path254" /><path
         d="m 44.0625,1859.34 c 7.0508,0 12.7734,5.71 12.7734,12.77 0,7.06 -5.7226,12.78 -12.7734,12.78 -7.0586,0 -12.7812,-5.72 -12.7812,-12.78 0,-7.06 5.7226,-12.77 12.7812,-12.77"
         style="fill:#100f0d;fill-opacity:1;fill-rule:nonzero;stroke:none"
         id="path296" /><path
         d="m 188.059,1859.34 c 7.058,0 12.781,5.71 12.781,12.77 0,7.06 -5.723,12.78 -12.781,12.78 -7.051,0 -12.778,-5.72 -12.778,-12.78 0,-7.06 5.727,-12.77 12.778,-12.77"
         style="fill:#100f0d;fill-opacity:1;fill-rule:nonzero;stroke:none"
         id="path298" /><path
         d="m 332.063,1859.34 c 7.058,0 12.781,5.71 12.781,12.77 0,7.06 -5.723,12.78 -12.781,12.78 -7.063,0 -12.786,-5.72 -12.786,-12.78 0,-7.06 5.723,-12.77 12.786,-12.77"
         style="fill:#100f0d;fill-opacity:1;fill-rule:nonzero;stroke:none"
         id="path300" /><path
         d="m 476.063,1859.34 c 7.05,0 12.777,5.71 12.777,12.77 0,7.06 -5.727,12.78 -12.777,12.78 -7.059,0 -12.782,-5.72 -12.782,-12.78 0,-7.06 5.723,-12.77 12.782,-12.77"
         style="fill:#100f0d;fill-opacity:1;fill-rule:nonzero;stroke:none"
         id="path302" /><path
         d="m 620.059,1859.34 c 7.058,0 12.785,5.71 12.785,12.77 0,7.06 -5.727,12.78 -12.785,12.78 -7.051,0 -12.774,-5.72 -12.774,-12.78 0,-7.06 5.723,-12.77 12.774,-12.77"
         style="fill:#100f0d;fill-opacity:1;fill-rule:nonzero;stroke:none"
         id="path304" /><path
         d="m 764.063,1859.34 c 7.05,0 12.773,5.71 12.773,12.77 0,7.06 -5.723,12.78 -12.773,12.78 -7.059,0 -12.786,-5.72 -12.786,-12.78 0,-7.06 5.727,-12.77 12.786,-12.77"
         style="fill:#100f0d;fill-opacity:1;fill-rule:nonzero;stroke:none"
         id="path306" /><path
         d="m 908.059,1859.34 c 7.058,0 12.781,5.71 12.781,12.77 0,7.06 -5.723,12.78 -12.781,12.78 -7.051,0 -12.778,-5.72 -12.778,-12.78 0,-7.06 5.727,-12.77 12.778,-12.77"
         style="fill:#100f0d;fill-opacity:1;fill-rule:nonzero;stroke:none"
         id="path308" /><path
         d="m 1052.06,1859.34 c 7.06,0 12.78,5.71 12.78,12.77 0,7.06 -5.72,12.78 -12.78,12.78 -7.06,0 -12.78,-5.72 -12.78,-12.78 0,-7.06 5.72,-12.77 12.78,-12.77"
         style="fill:#100f0d;fill-opacity:1;fill-rule:nonzero;stroke:none"
         id="path310" /><path
         d="m 1196.06,1859.34 c 7.06,0 12.78,5.71 12.78,12.77 0,7.06 -5.72,12.78 -12.78,12.78 -7.06,0 -12.78,-5.72 -12.78,-12.78 0,-7.06 5.72,-12.77 12.78,-12.77"
         style="fill:#100f0d;fill-opacity:1;fill-rule:nonzero;stroke:none"
         id="path312" /><path
         d="m 1340.06,1859.34 c 7.06,0 12.78,5.71 12.78,12.77 0,7.06 -5.72,12.78 -12.78,12.78 -7.05,0 -12.77,-5.72 -12.77,-12.78 0,-7.06 5.72,-12.77 12.77,-12.77"
         style="fill:#100f0d;fill-opacity:1;fill-rule:nonzero;stroke:none"
         id="path314" /><path
         d="m 1484.06,1859.34 c 7.05,0 12.78,5.71 12.78,12.77 0,7.06 -5.73,12.78 -12.78,12.78 -7.06,0 -12.78,-5.72 -12.78,-12.78 0,-7.06 5.72,-12.77 12.78,-12.77"
         style="fill:#100f0d;fill-opacity:1;fill-rule:nonzero;stroke:none"
         id="path316" /><path
         d="m 1628.06,1859.34 c 7.06,0 12.78,5.71 12.78,12.77 0,7.06 -5.72,12.78 -12.78,12.78 -7.05,0 -12.78,-5.72 -12.78,-12.78 0,-7.06 5.73,-12.77 12.78,-12.77"
         style="fill:#100f0d;fill-opacity:1;fill-rule:nonzero;stroke:none"
         id="path318" /><path
         d="m 1772.06,1859.34 c 7.06,0 12.78,5.71 12.78,12.77 0,7.06 -5.72,12.78 -12.78,12.78 -7.06,0 -12.78,-5.72 -12.78,-12.78 0,-7.06 5.72,-12.77 12.78,-12.77"
         style="fill:#100f0d;fill-opacity:1;fill-rule:nonzero;stroke:none"
         id="path320" /><path
         d="m 1916.06,1859.34 c 7.06,0 12.78,5.71 12.78,12.77 0,7.06 -5.72,12.78 -12.78,12.78 -7.06,0 -12.78,-5.72 -12.78,-12.78 0,-7.06 5.72,-12.77 12.78,-12.77"
         style="fill:#100f0d;fill-opacity:1;fill-rule:nonzero;stroke:none"
         id="path322" /><path
         d="m 2060.06,1859.34 c 7.06,0 12.78,5.71 12.78,12.77 0,7.06 -5.72,12.78 -12.78,12.78 -7.05,0 -12.77,-5.72 -12.77,-12.78 0,-7.06 5.72,-12.77 12.77,-12.77"
         style="fill:#100f0d;fill-opacity:1;fill-rule:nonzero;stroke:none"
         id="path324" /><path
         d="m 2204.06,1859.34 c 7.05,0 12.78,5.71 12.78,12.77 0,7.06 -5.73,12.78 -12.78,12.78 -7.06,0 -12.78,-5.72 -12.78,-12.78 0,-7.06 5.72,-12.77 12.78,-12.77"
         style="fill:#100f0d;fill-opacity:1;fill-rule:nonzero;stroke:none"
         id="path326" /><path
         d="m 2348.06,1859.34 c 7.06,0 12.78,5.71 12.78,12.77 0,7.06 -5.72,12.78 -12.78,12.78 -7.05,0 -12.78,-5.72 -12.78,-12.78 0,-7.06 5.73,-12.77 12.78,-12.77"
         style="fill:#100f0d;fill-opacity:1;fill-rule:nonzero;stroke:none"
         id="path328" /><path
         d="m 2492.06,1859.34 c 7.06,0 12.78,5.71 12.78,12.77 0,7.06 -5.72,12.78 -12.78,12.78 -7.06,0 -12.78,-5.72 -12.78,-12.78 0,-7.06 5.72,-12.77 12.78,-12.77"
         style="fill:#100f0d;fill-opacity:1;fill-rule:nonzero;stroke:none"
         id="path330" /><path
         d="m 2636.06,1859.34 c 7.06,0 12.78,5.71 12.78,12.77 0,7.06 -5.72,12.78 -12.78,12.78 -7.06,0 -12.78,-5.72 -12.78,-12.78 0,-7.06 5.72,-12.77 12.78,-12.77"
         style="fill:#100f0d;fill-opacity:1;fill-rule:nonzero;stroke:none"
         id="path332" /><path
         d="m 2780.06,1859.34 c 7.06,0 12.78,5.71 12.78,12.77 0,7.06 -5.72,12.78 -12.78,12.78 -7.05,0 -12.77,-5.72 -12.77,-12.78 0,-7.06 5.72,-12.77 12.77,-12.77"
         style="fill:#100f0d;fill-opacity:1;fill-rule:nonzero;stroke:none"
         id="path334" /><path
         d="m 44.0625,1571.33 c 7.0508,0 12.7734,5.73 12.7734,12.78 0,7.06 -5.7226,12.78 -12.7734,12.78 -7.0586,0 -12.7812,-5.72 -12.7812,-12.78 0,-7.05 5.7226,-12.78 12.7812,-12.78"
         style="fill:#100f0d;fill-opacity:1;fill-rule:nonzero;stroke:none"
         id="path376" /><path
         d="m 188.059,1571.33 c 7.058,0 12.781,5.73 12.781,12.78 0,7.06 -5.723,12.78 -12.781,12.78 -7.051,0 -12.778,-5.72 -12.778,-12.78 0,-7.05 5.727,-12.78 12.778,-12.78"
         style="fill:#100f0d;fill-opacity:1;fill-rule:nonzero;stroke:none"
         id="path378" /><path
         d="m 332.063,1571.33 c 7.058,0 12.781,5.73 12.781,12.78 0,7.06 -5.723,12.78 -12.781,12.78 -7.063,0 -12.786,-5.72 -12.786,-12.78 0,-7.05 5.723,-12.78 12.786,-12.78"
         style="fill:#100f0d;fill-opacity:1;fill-rule:nonzero;stroke:none"
         id="path380" /><path
         d="m 476.063,1571.33 c 7.05,0 12.777,5.73 12.777,12.78 0,7.06 -5.727,12.78 -12.777,12.78 -7.059,0 -12.782,-5.72 -12.782,-12.78 0,-7.05 5.723,-12.78 12.782,-12.78"
         style="fill:#100f0d;fill-opacity:1;fill-rule:nonzero;stroke:none"
         id="path382" /><path
         d="m 620.059,1571.33 c 7.058,0 12.785,5.73 12.785,12.78 0,7.06 -5.727,12.78 -12.785,12.78 -7.051,0 -12.774,-5.72 -12.774,-12.78 0,-7.05 5.723,-12.78 12.774,-12.78"
         style="fill:#100f0d;fill-opacity:1;fill-rule:nonzero;stroke:none"
         id="path384" /><path
         d="m 764.063,1571.33 c 7.05,0 12.773,5.73 12.773,12.78 0,7.06 -5.723,12.78 -12.773,12.78 -7.059,0 -12.786,-5.72 -12.786,-12.78 0,-7.05 5.727,-12.78 12.786,-12.78"
         style="fill:#100f0d;fill-opacity:1;fill-rule:nonzero;stroke:none"
         id="path386" /><path
         d="m 908.059,1571.33 c 7.058,0 12.781,5.73 12.781,12.78 0,7.06 -5.723,12.78 -12.781,12.78 -7.051,0 -12.778,-5.72 -12.778,-12.78 0,-7.05 5.727,-12.78 12.778,-12.78"
         style="fill:#100f0d;fill-opacity:1;fill-rule:nonzero;stroke:none"
         id="path388" /><path
         d="m 1052.06,1571.33 c 7.06,0 12.78,5.73 12.78,12.78 0,7.06 -5.72,12.78 -12.78,12.78 -7.06,0 -12.78,-5.72 -12.78,-12.78 0,-7.05 5.72,-12.78 12.78,-12.78"
         style="fill:#100f0d;fill-opacity:1;fill-rule:nonzero;stroke:none"
         id="path390" /><path
         d="m 1196.06,1571.33 c 7.06,0 12.78,5.73 12.78,12.78 0,7.06 -5.72,12.78 -12.78,12.78 -7.06,0 -12.78,-5.72 -12.78,-12.78 0,-7.05 5.72,-12.78 12.78,-12.78"
         style="fill:#100f0d;fill-opacity:1;fill-rule:nonzero;stroke:none"
         id="path392" /><path
         d="m 1340.06,1571.33 c 7.06,0 12.78,5.73 12.78,12.78 0,7.06 -5.72,12.78 -12.78,12.78 -7.05,0 -12.77,-5.72 -12.77,-12.78 0,-7.05 5.72,-12.78 12.77,-12.78"
         style="fill:#100f0d;fill-opacity:1;fill-rule:nonzero;stroke:none"
         id="path394" /><path
         d="m 1484.06,1571.33 c 7.05,0 12.78,5.73 12.78,12.78 0,7.06 -5.73,12.78 -12.78,12.78 -7.06,0 -12.78,-5.72 -12.78,-12.78 0,-7.05 5.72,-12.78 12.78,-12.78"
         style="fill:#100f0d;fill-opacity:1;fill-rule:nonzero;stroke:none"
         id="path396" /><path
         d="m 1628.06,1571.33 c 7.06,0 12.78,5.73 12.78,12.78 0,7.06 -5.72,12.78 -12.78,12.78 -7.05,0 -12.78,-5.72 -12.78,-12.78 0,-7.05 5.73,-12.78 12.78,-12.78"
         style="fill:#100f0d;fill-opacity:1;fill-rule:nonzero;stroke:none"
         id="path398" /><path
         d="m 1772.06,1571.33 c 7.06,0 12.78,5.73 12.78,12.78 0,7.06 -5.72,12.78 -12.78,12.78 -7.06,0 -12.78,-5.72 -12.78,-12.78 0,-7.05 5.72,-12.78 12.78,-12.78"
         style="fill:#100f0d;fill-opacity:1;fill-rule:nonzero;stroke:none"
         id="path400" /><path
         d="m 1916.06,1571.33 c 7.06,0 12.78,5.73 12.78,12.78 0,7.06 -5.72,12.78 -12.78,12.78 -7.06,0 -12.78,-5.72 -12.78,-12.78 0,-7.05 5.72,-12.78 12.78,-12.78"
         style="fill:#100f0d;fill-opacity:1;fill-rule:nonzero;stroke:none"
         id="path402" /><path
         d="m 2060.06,1571.33 c 7.06,0 12.78,5.73 12.78,12.78 0,7.06 -5.72,12.78 -12.78,12.78 -7.05,0 -12.77,-5.72 -12.77,-12.78 0,-7.05 5.72,-12.78 12.77,-12.78"
         style="fill:#100f0d;fill-opacity:1;fill-rule:nonzero;stroke:none"
         id="path404" /><path
         d="m 2204.06,1571.33 c 7.05,0 12.78,5.73 12.78,12.78 0,7.06 -5.73,12.78 -12.78,12.78 -7.06,0 -12.78,-5.72 -12.78,-12.78 0,-7.05 5.72,-12.78 12.78,-12.78"
         style="fill:#100f0d;fill-opacity:1;fill-rule:nonzero;stroke:none"
         id="path406" /><path
         d="m 2348.06,1571.33 c 7.06,0 12.78,5.73 12.78,12.78 0,7.06 -5.72,12.78 -12.78,12.78 -7.05,0 -12.78,-5.72 -12.78,-12.78 0,-7.05 5.73,-12.78 12.78,-12.78"
         style="fill:#100f0d;fill-opacity:1;fill-rule:nonzero;stroke:none"
         id="path408" /><path
         d="m 2492.06,1571.33 c 7.06,0 12.78,5.73 12.78,12.78 0,7.06 -5.72,12.78 -12.78,12.78 -7.06,0 -12.78,-5.72 -12.78,-12.78 0,-7.05 5.72,-12.78 12.78,-12.78"
         style="fill:#100f0d;fill-opacity:1;fill-rule:nonzero;stroke:none"
         id="path410" /><path
         d="m 2636.06,1571.33 c 7.06,0 12.78,5.73 12.78,12.78 0,7.06 -5.72,12.78 -12.78,12.78 -7.06,0 -12.78,-5.72 -12.78,-12.78 0,-7.05 5.72,-12.78 12.78,-12.78"
         style="fill:#100f0d;fill-opacity:1;fill-rule:nonzero;stroke:none"
         id="path412" /><path
         d="m 2780.06,1571.33 c 7.06,0 12.78,5.73 12.78,12.78 0,7.06 -5.72,12.78 -12.78,12.78 -7.05,0 -12.77,-5.72 -12.77,-12.78 0,-7.05 5.72,-12.78 12.77,-12.78"
         style="fill:#100f0d;fill-opacity:1;fill-rule:nonzero;stroke:none"
         id="path414" /><path
         d="m 44.0625,1283.33 c 7.0508,0 12.7734,5.73 12.7734,12.78 0,7.06 -5.7226,12.78 -12.7734,12.78 -7.0586,0 -12.7812,-5.72 -12.7812,-12.78 0,-7.05 5.7226,-12.78 12.7812,-12.78"
         style="fill:#100f0d;fill-opacity:1;fill-rule:nonzero;stroke:none"
         id="path456" /><path
         d="m 188.059,1283.33 c 7.058,0 12.781,5.73 12.781,12.78 0,7.06 -5.723,12.78 -12.781,12.78 -7.051,0 -12.778,-5.72 -12.778,-12.78 0,-7.05 5.727,-12.78 12.778,-12.78"
         style="fill:#100f0d;fill-opacity:1;fill-rule:nonzero;stroke:none"
         id="path458" /><path
         d="m 332.063,1283.33 c 7.058,0 12.781,5.73 12.781,12.78 0,7.06 -5.723,12.78 -12.781,12.78 -7.063,0 -12.786,-5.72 -12.786,-12.78 0,-7.05 5.723,-12.78 12.786,-12.78"
         style="fill:#100f0d;fill-opacity:1;fill-rule:nonzero;stroke:none"
         id="path460" /><path
         d="m 476.063,1283.33 c 7.05,0 12.777,5.73 12.777,12.78 0,7.06 -5.727,12.78 -12.777,12.78 -7.059,0 -12.782,-5.72 -12.782,-12.78 0,-7.05 5.723,-12.78 12.782,-12.78"
         style="fill:#100f0d;fill-opacity:1;fill-rule:nonzero;stroke:none"
         id="path462" /><path
         d="m 620.059,1283.33 c 7.058,0 12.785,5.73 12.785,12.78 0,7.06 -5.727,12.78 -12.785,12.78 -7.051,0 -12.774,-5.72 -12.774,-12.78 0,-7.05 5.723,-12.78 12.774,-12.78"
         style="fill:#100f0d;fill-opacity:1;fill-rule:nonzero;stroke:none"
         id="path464" /><path
         d="m 764.063,1283.33 c 7.05,0 12.773,5.73 12.773,12.78 0,7.06 -5.723,12.78 -12.773,12.78 -7.059,0 -12.786,-5.72 -12.786,-12.78 0,-7.05 5.727,-12.78 12.786,-12.78"
         style="fill:#100f0d;fill-opacity:1;fill-rule:nonzero;stroke:none"
         id="path466" /><path
         d="m 908.059,1283.33 c 7.058,0 12.781,5.73 12.781,12.78 0,7.06 -5.723,12.78 -12.781,12.78 -7.051,0 -12.778,-5.72 -12.778,-12.78 0,-7.05 5.727,-12.78 12.778,-12.78"
         style="fill:#100f0d;fill-opacity:1;fill-rule:nonzero;stroke:none"
         id="path468" /><path
         d="m 1052.06,1283.33 c 7.06,0 12.78,5.73 12.78,12.78 0,7.06 -5.72,12.78 -12.78,12.78 -7.06,0 -12.78,-5.72 -12.78,-12.78 0,-7.05 5.72,-12.78 12.78,-12.78"
         style="fill:#100f0d;fill-opacity:1;fill-rule:nonzero;stroke:none"
         id="path470" /><path
         d="m 1196.06,1283.33 c 7.06,0 12.78,5.73 12.78,12.78 0,7.06 -5.72,12.78 -12.78,12.78 -7.06,0 -12.78,-5.72 -12.78,-12.78 0,-7.05 5.72,-12.78 12.78,-12.78"
         style="fill:#100f0d;fill-opacity:1;fill-rule:nonzero;stroke:none"
         id="path472" /><path
         d="m 1340.06,1283.33 c 7.06,0 12.78,5.73 12.78,12.78 0,7.06 -5.72,12.78 -12.78,12.78 -7.05,0 -12.77,-5.72 -12.77,-12.78 0,-7.05 5.72,-12.78 12.77,-12.78"
         style="fill:#100f0d;fill-opacity:1;fill-rule:nonzero;stroke:none"
         id="path474" /><path
         d="m 1484.06,1283.33 c 7.05,0 12.78,5.73 12.78,12.78 0,7.06 -5.73,12.78 -12.78,12.78 -7.06,0 -12.78,-5.72 -12.78,-12.78 0,-7.05 5.72,-12.78 12.78,-12.78"
         style="fill:#100f0d;fill-opacity:1;fill-rule:nonzero;stroke:none"
         id="path476" /><path
         d="m 1628.06,1283.33 c 7.06,0 12.78,5.73 12.78,12.78 0,7.06 -5.72,12.78 -12.78,12.78 -7.05,0 -12.78,-5.72 -12.78,-12.78 0,-7.05 5.73,-12.78 12.78,-12.78"
         style="fill:#100f0d;fill-opacity:1;fill-rule:nonzero;stroke:none"
         id="path478" /><path
         d="m 1772.06,1283.33 c 7.06,0 12.78,5.73 12.78,12.78 0,7.06 -5.72,12.78 -12.78,12.78 -7.06,0 -12.78,-5.72 -12.78,-12.78 0,-7.05 5.72,-12.78 12.78,-12.78"
         style="fill:#100f0d;fill-opacity:1;fill-rule:nonzero;stroke:none"
         id="path480" /><path
         d="m 1916.06,1283.33 c 7.06,0 12.78,5.73 12.78,12.78 0,7.06 -5.72,12.78 -12.78,12.78 -7.06,0 -12.78,-5.72 -12.78,-12.78 0,-7.05 5.72,-12.78 12.78,-12.78"
         style="fill:#100f0d;fill-opacity:1;fill-rule:nonzero;stroke:none"
         id="path482" /><path
         d="m 2060.06,1283.33 c 7.06,0 12.78,5.73 12.78,12.78 0,7.06 -5.72,12.78 -12.78,12.78 -7.05,0 -12.77,-5.72 -12.77,-12.78 0,-7.05 5.72,-12.78 12.77,-12.78"
         style="fill:#100f0d;fill-opacity:1;fill-rule:nonzero;stroke:none"
         id="path484" /><path
         d="m 2204.06,1283.33 c 7.05,0 12.78,5.73 12.78,12.78 0,7.06 -5.73,12.78 -12.78,12.78 -7.06,0 -12.78,-5.72 -12.78,-12.78 0,-7.05 5.72,-12.78 12.78,-12.78"
         style="fill:#100f0d;fill-opacity:1;fill-rule:nonzero;stroke:none"
         id="path486" /><path
         d="m 2348.06,1283.33 c 7.06,0 12.78,5.73 12.78,12.78 0,7.06 -5.72,12.78 -12.78,12.78 -7.05,0 -12.78,-5.72 -12.78,-12.78 0,-7.05 5.73,-12.78 12.78,-12.78"
         style="fill:#100f0d;fill-opacity:1;fill-rule:nonzero;stroke:none"
         id="path488" /><path
         d="m 2492.06,1283.33 c 7.06,0 12.78,5.73 12.78,12.78 0,7.06 -5.72,12.78 -12.78,12.78 -7.06,0 -12.78,-5.72 -12.78,-12.78 0,-7.05 5.72,-12.78 12.78,-12.78"
         style="fill:#100f0d;fill-opacity:1;fill-rule:nonzero;stroke:none"
         id="path490" /><path
         d="m 2636.06,1283.33 c 7.06,0 12.78,5.73 12.78,12.78 0,7.06 -5.72,12.78 -12.78,12.78 -7.06,0 -12.78,-5.72 -12.78,-12.78 0,-7.05 5.72,-12.78 12.78,-12.78"
         style="fill:#100f0d;fill-opacity:1;fill-rule:nonzero;stroke:none"
         id="path492" /><path
         d="m 2780.06,1283.33 c 7.06,0 12.78,5.73 12.78,12.78 0,7.06 -5.72,12.78 -12.78,12.78 -7.05,0 -12.77,-5.72 -12.77,-12.78 0,-7.05 5.72,-12.78 12.77,-12.78"
         style="fill:#100f0d;fill-opacity:1;fill-rule:nonzero;stroke:none"
         id="path494" /><path
         d="m 44.0625,995.34 c 7.0508,0 12.7734,5.71 12.7734,12.77 0,7.06 -5.7226,12.78 -12.7734,12.78 -7.0586,0 -12.7812,-5.72 -12.7812,-12.78 0,-7.06 5.7226,-12.77 12.7812,-12.77"
         style="fill:#100f0d;fill-opacity:1;fill-rule:nonzero;stroke:none"
         id="path536" /><path
         d="m 188.059,995.34 c 7.058,0 12.781,5.71 12.781,12.77 0,7.06 -5.723,12.78 -12.781,12.78 -7.051,0 -12.778,-5.72 -12.778,-12.78 0,-7.06 5.727,-12.77 12.778,-12.77"
         style="fill:#100f0d;fill-opacity:1;fill-rule:nonzero;stroke:none"
         id="path538" /><path
         d="m 332.063,995.34 c 7.058,0 12.781,5.71 12.781,12.77 0,7.06 -5.723,12.78 -12.781,12.78 -7.063,0 -12.786,-5.72 -12.786,-12.78 0,-7.06 5.723,-12.77 12.786,-12.77"
         style="fill:#100f0d;fill-opacity:1;fill-rule:nonzero;stroke:none"
         id="path540" /><path
         d="m 476.063,995.34 c 7.05,0 12.777,5.71 12.777,12.77 0,7.06 -5.727,12.78 -12.777,12.78 -7.059,0 -12.782,-5.72 -12.782,-12.78 0,-7.06 5.723,-12.77 12.782,-12.77"
         style="fill:#100f0d;fill-opacity:1;fill-rule:nonzero;stroke:none"
         id="path542" /><path
         d="m 620.059,995.34 c 7.058,0 12.785,5.71 12.785,12.77 0,7.06 -5.727,12.78 -12.785,12.78 -7.051,0 -12.774,-5.72 -12.774,-12.78 0,-7.06 5.723,-12.77 12.774,-12.77"
         style="fill:#100f0d;fill-opacity:1;fill-rule:nonzero;stroke:none"
         id="path544" /><path
         d="m 764.063,995.34 c 7.05,0 12.773,5.71 12.773,12.77 0,7.06 -5.723,12.78 -12.773,12.78 -7.059,0 -12.786,-5.72 -12.786,-12.78 0,-7.06 5.727,-12.77 12.786,-12.77"
         style="fill:#100f0d;fill-opacity:1;fill-rule:nonzero;stroke:none"
         id="path546" /><path
         d="m 908.059,995.34 c 7.058,0 12.781,5.71 12.781,12.77 0,7.06 -5.723,12.78 -12.781,12.78 -7.051,0 -12.778,-5.72 -12.778,-12.78 0,-7.06 5.727,-12.77 12.778,-12.77"
         style="fill:#100f0d;fill-opacity:1;fill-rule:nonzero;stroke:none"
         id="path548" /><path
         d="m 1052.06,995.34 c 7.06,0 12.78,5.71 12.78,12.77 0,7.06 -5.72,12.78 -12.78,12.78 -7.06,0 -12.78,-5.72 -12.78,-12.78 0,-7.06 5.72,-12.77 12.78,-12.77"
         style="fill:#100f0d;fill-opacity:1;fill-rule:nonzero;stroke:none"
         id="path550" /><path
         d="m 1196.06,995.34 c 7.06,0 12.78,5.71 12.78,12.77 0,7.06 -5.72,12.78 -12.78,12.78 -7.06,0 -12.78,-5.72 -12.78,-12.78 0,-7.06 5.72,-12.77 12.78,-12.77"
         style="fill:#100f0d;fill-opacity:1;fill-rule:nonzero;stroke:none"
         id="path552" /><path
         d="m 1340.06,995.34 c 7.06,0 12.78,5.71 12.78,12.77 0,7.06 -5.72,12.78 -12.78,12.78 -7.05,0 -12.77,-5.72 -12.77,-12.78 0,-7.06 5.72,-12.77 12.77,-12.77"
         style="fill:#100f0d;fill-opacity:1;fill-rule:nonzero;stroke:none"
         id="path554" /><path
         d="m 1484.06,995.34 c 7.05,0 12.78,5.71 12.78,12.77 0,7.06 -5.73,12.78 -12.78,12.78 -7.06,0 -12.78,-5.72 -12.78,-12.78 0,-7.06 5.72,-12.77 12.78,-12.77"
         style="fill:#100f0d;fill-opacity:1;fill-rule:nonzero;stroke:none"
         id="path556" /><path
         d="m 1628.06,995.34 c 7.06,0 12.78,5.71 12.78,12.77 0,7.06 -5.72,12.78 -12.78,12.78 -7.05,0 -12.78,-5.72 -12.78,-12.78 0,-7.06 5.73,-12.77 12.78,-12.77"
         style="fill:#100f0d;fill-opacity:1;fill-rule:nonzero;stroke:none"
         id="path558" /><path
         d="m 1772.06,995.34 c 7.06,0 12.78,5.71 12.78,12.77 0,7.06 -5.72,12.78 -12.78,12.78 -7.06,0 -12.78,-5.72 -12.78,-12.78 0,-7.06 5.72,-12.77 12.78,-12.77"
         style="fill:#100f0d;fill-opacity:1;fill-rule:nonzero;stroke:none"
         id="path560" /><path
         d="m 1916.06,995.34 c 7.06,0 12.78,5.71 12.78,12.77 0,7.06 -5.72,12.78 -12.78,12.78 -7.06,0 -12.78,-5.72 -12.78,-12.78 0,-7.06 5.72,-12.77 12.78,-12.77"
         style="fill:#100f0d;fill-opacity:1;fill-rule:nonzero;stroke:none"
         id="path562" /><path
         d="m 2060.06,995.34 c 7.06,0 12.78,5.71 12.78,12.77 0,7.06 -5.72,12.78 -12.78,12.78 -7.05,0 -12.77,-5.72 -12.77,-12.78 0,-7.06 5.72,-12.77 12.77,-12.77"
         style="fill:#100f0d;fill-opacity:1;fill-rule:nonzero;stroke:none"
         id="path564" /><path
         d="m 2204.06,995.34 c 7.05,0 12.78,5.71 12.78,12.77 0,7.06 -5.73,12.78 -12.78,12.78 -7.06,0 -12.78,-5.72 -12.78,-12.78 0,-7.06 5.72,-12.77 12.78,-12.77"
         style="fill:#100f0d;fill-opacity:1;fill-rule:nonzero;stroke:none"
         id="path566" /><path
         d="m 2348.06,995.34 c 7.06,0 12.78,5.71 12.78,12.77 0,7.06 -5.72,12.78 -12.78,12.78 -7.05,0 -12.78,-5.72 -12.78,-12.78 0,-7.06 5.73,-12.77 12.78,-12.77"
         style="fill:#100f0d;fill-opacity:1;fill-rule:nonzero;stroke:none"
         id="path568" /><path
         d="m 2492.06,995.34 c 7.06,0 12.78,5.71 12.78,12.77 0,7.06 -5.72,12.78 -12.78,12.78 -7.06,0 -12.78,-5.72 -12.78,-12.78 0,-7.06 5.72,-12.77 12.78,-12.77"
         style="fill:#100f0d;fill-opacity:1;fill-rule:nonzero;stroke:none"
         id="path570" /><path
         d="m 2636.06,995.34 c 7.06,0 12.78,5.71 12.78,12.77 0,7.06 -5.72,12.78 -12.78,12.78 -7.06,0 -12.78,-5.72 -12.78,-12.78 0,-7.06 5.72,-12.77 12.78,-12.77"
         style="fill:#100f0d;fill-opacity:1;fill-rule:nonzero;stroke:none"
         id="path572" /><path
         d="m 2780.06,995.34 c 7.06,0 12.78,5.71 12.78,12.77 0,7.06 -5.72,12.78 -12.78,12.78 -7.05,0 -12.77,-5.72 -12.77,-12.78 0,-7.06 5.72,-12.77 12.77,-12.77"
         style="fill:#100f0d;fill-opacity:1;fill-rule:nonzero;stroke:none"
         id="path574" /><path
         d="m 44.0625,707.332 c 7.0508,0 12.7734,5.727 12.7734,12.777 0,7.063 -5.7226,12.782 -12.7734,12.782 -7.0586,0 -12.7812,-5.719 -12.7812,-12.782 0,-7.05 5.7226,-12.777 12.7812,-12.777"
         style="fill:#100f0d;fill-opacity:1;fill-rule:nonzero;stroke:none"
         id="path616" /><path
         d="m 188.059,707.332 c 7.058,0 12.781,5.727 12.781,12.777 0,7.063 -5.723,12.782 -12.781,12.782 -7.051,0 -12.778,-5.719 -12.778,-12.782 0,-7.05 5.727,-12.777 12.778,-12.777"
         style="fill:#100f0d;fill-opacity:1;fill-rule:nonzero;stroke:none"
         id="path618" /><path
         d="m 332.063,707.332 c 7.058,0 12.781,5.727 12.781,12.777 0,7.063 -5.723,12.782 -12.781,12.782 -7.063,0 -12.786,-5.719 -12.786,-12.782 0,-7.05 5.723,-12.777 12.786,-12.777"
         style="fill:#100f0d;fill-opacity:1;fill-rule:nonzero;stroke:none"
         id="path620" /><path
         d="m 476.063,707.332 c 7.05,0 12.777,5.727 12.777,12.777 0,7.063 -5.727,12.782 -12.777,12.782 -7.059,0 -12.782,-5.719 -12.782,-12.782 0,-7.05 5.723,-12.777 12.782,-12.777"
         style="fill:#100f0d;fill-opacity:1;fill-rule:nonzero;stroke:none"
         id="path622" /><path
         d="m 620.059,707.332 c 7.058,0 12.785,5.727 12.785,12.777 0,7.063 -5.727,12.782 -12.785,12.782 -7.051,0 -12.774,-5.719 -12.774,-12.782 0,-7.05 5.723,-12.777 12.774,-12.777"
         style="fill:#100f0d;fill-opacity:1;fill-rule:nonzero;stroke:none"
         id="path624" /><path
         d="m 764.063,707.332 c 7.05,0 12.773,5.727 12.773,12.777 0,7.063 -5.723,12.782 -12.773,12.782 -7.059,0 -12.786,-5.719 -12.786,-12.782 0,-7.05 5.727,-12.777 12.786,-12.777"
         style="fill:#100f0d;fill-opacity:1;fill-rule:nonzero;stroke:none"
         id="path626" /><path
         d="m 908.059,707.332 c 7.058,0 12.781,5.727 12.781,12.777 0,7.063 -5.723,12.782 -12.781,12.782 -7.051,0 -12.778,-5.719 -12.778,-12.782 0,-7.05 5.727,-12.777 12.778,-12.777"
         style="fill:#100f0d;fill-opacity:1;fill-rule:nonzero;stroke:none"
         id="path628" /><path
         d="m 1052.06,707.332 c 7.06,0 12.78,5.727 12.78,12.777 0,7.063 -5.72,12.782 -12.78,12.782 -7.06,0 -12.78,-5.719 -12.78,-12.782 0,-7.05 5.72,-12.777 12.78,-12.777"
         style="fill:#100f0d;fill-opacity:1;fill-rule:nonzero;stroke:none"
         id="path630" /><path
         d="m 1196.06,707.332 c 7.06,0 12.78,5.727 12.78,12.777 0,7.063 -5.72,12.782 -12.78,12.782 -7.06,0 -12.78,-5.719 -12.78,-12.782 0,-7.05 5.72,-12.777 12.78,-12.777"
         style="fill:#100f0d;fill-opacity:1;fill-rule:nonzero;stroke:none"
         id="path632" /><path
         d="m 1340.06,707.332 c 7.06,0 12.78,5.727 12.78,12.777 0,7.063 -5.72,12.782 -12.78,12.782 -7.05,0 -12.77,-5.719 -12.77,-12.782 0,-7.05 5.72,-12.777 12.77,-12.777"
         style="fill:#100f0d;fill-opacity:1;fill-rule:nonzero;stroke:none"
         id="path634" /><path
         d="m 1484.06,707.332 c 7.05,0 12.78,5.727 12.78,12.777 0,7.063 -5.73,12.782 -12.78,12.782 -7.06,0 -12.78,-5.719 -12.78,-12.782 0,-7.05 5.72,-12.777 12.78,-12.777"
         style="fill:#100f0d;fill-opacity:1;fill-rule:nonzero;stroke:none"
         id="path636" /><path
         d="m 1628.06,707.332 c 7.06,0 12.78,5.727 12.78,12.777 0,7.063 -5.72,12.782 -12.78,12.782 -7.05,0 -12.78,-5.719 -12.78,-12.782 0,-7.05 5.73,-12.777 12.78,-12.777"
         style="fill:#100f0d;fill-opacity:1;fill-rule:nonzero;stroke:none"
         id="path638" /><path
         d="m 1772.06,707.332 c 7.06,0 12.78,5.727 12.78,12.777 0,7.063 -5.72,12.782 -12.78,12.782 -7.06,0 -12.78,-5.719 -12.78,-12.782 0,-7.05 5.72,-12.777 12.78,-12.777"
         style="fill:#100f0d;fill-opacity:1;fill-rule:nonzero;stroke:none"
         id="path640" /><path
         d="m 1916.06,707.332 c 7.06,0 12.78,5.727 12.78,12.777 0,7.063 -5.72,12.782 -12.78,12.782 -7.06,0 -12.78,-5.719 -12.78,-12.782 0,-7.05 5.72,-12.777 12.78,-12.777"
         style="fill:#100f0d;fill-opacity:1;fill-rule:nonzero;stroke:none"
         id="path642" /><path
         d="m 2060.06,707.332 c 7.06,0 12.78,5.727 12.78,12.777 0,7.063 -5.72,12.782 -12.78,12.782 -7.05,0 -12.77,-5.719 -12.77,-12.782 0,-7.05 5.72,-12.777 12.77,-12.777"
         style="fill:#100f0d;fill-opacity:1;fill-rule:nonzero;stroke:none"
         id="path644" /><path
         d="m 2204.06,707.332 c 7.05,0 12.78,5.727 12.78,12.777 0,7.063 -5.73,12.782 -12.78,12.782 -7.06,0 -12.78,-5.719 -12.78,-12.782 0,-7.05 5.72,-12.777 12.78,-12.777"
         style="fill:#100f0d;fill-opacity:1;fill-rule:nonzero;stroke:none"
         id="path646" /><path
         d="m 2348.06,707.332 c 7.06,0 12.78,5.727 12.78,12.777 0,7.063 -5.72,12.782 -12.78,12.782 -7.05,0 -12.78,-5.719 -12.78,-12.782 0,-7.05 5.73,-12.777 12.78,-12.777"
         style="fill:#100f0d;fill-opacity:1;fill-rule:nonzero;stroke:none"
         id="path648" /><path
         d="m 2492.06,707.332 c 7.06,0 12.78,5.727 12.78,12.777 0,7.063 -5.72,12.782 -12.78,12.782 -7.06,0 -12.78,-5.719 -12.78,-12.782 0,-7.05 5.72,-12.777 12.78,-12.777"
         style="fill:#100f0d;fill-opacity:1;fill-rule:nonzero;stroke:none"
         id="path650" /><path
         d="m 2636.06,707.332 c 7.06,0 12.78,5.727 12.78,12.777 0,7.063 -5.72,12.782 -12.78,12.782 -7.06,0 -12.78,-5.719 -12.78,-12.782 0,-7.05 5.72,-12.777 12.78,-12.777"
         style="fill:#100f0d;fill-opacity:1;fill-rule:nonzero;stroke:none"
         id="path652" /><path
         d="m 2780.06,707.332 c 7.06,0 12.78,5.727 12.78,12.777 0,7.063 -5.72,12.782 -12.78,12.782 -7.05,0 -12.77,-5.719 -12.77,-12.782 0,-7.05 5.72,-12.777 12.77,-12.777"
         style="fill:#100f0d;fill-opacity:1;fill-rule:nonzero;stroke:none"
         id="path654" /><path
         d="m 44.0625,419.34 c 7.0508,0 12.7734,5.711 12.7734,12.769 0,7.063 -5.7226,12.782 -12.7734,12.782 -7.0586,0 -12.7812,-5.719 -12.7812,-12.782 0,-7.058 5.7226,-12.769 12.7812,-12.769"
         style="fill:#100f0d;fill-opacity:1;fill-rule:nonzero;stroke:none"
         id="path696" /><path
         d="m 188.059,419.34 c 7.058,0 12.781,5.711 12.781,12.769 0,7.063 -5.723,12.782 -12.781,12.782 -7.051,0 -12.778,-5.719 -12.778,-12.782 0,-7.058 5.727,-12.769 12.778,-12.769"
         style="fill:#100f0d;fill-opacity:1;fill-rule:nonzero;stroke:none"
         id="path698" /><path
         d="m 332.063,419.34 c 7.058,0 12.781,5.711 12.781,12.769 0,7.063 -5.723,12.782 -12.781,12.782 -7.063,0 -12.786,-5.719 -12.786,-12.782 0,-7.058 5.723,-12.769 12.786,-12.769"
         style="fill:#100f0d;fill-opacity:1;fill-rule:nonzero;stroke:none"
         id="path700" /><path
         d="m 476.063,419.34 c 7.05,0 12.777,5.711 12.777,12.769 0,7.063 -5.727,12.782 -12.777,12.782 -7.059,0 -12.782,-5.719 -12.782,-12.782 0,-7.058 5.723,-12.769 12.782,-12.769"
         style="fill:#100f0d;fill-opacity:1;fill-rule:nonzero;stroke:none"
         id="path702" /><path
         d="m 620.059,419.34 c 7.058,0 12.785,5.711 12.785,12.769 0,7.063 -5.727,12.782 -12.785,12.782 -7.051,0 -12.774,-5.719 -12.774,-12.782 0,-7.058 5.723,-12.769 12.774,-12.769"
         style="fill:#100f0d;fill-opacity:1;fill-rule:nonzero;stroke:none"
         id="path704" /><path
         d="m 764.063,419.34 c 7.05,0 12.773,5.711 12.773,12.769 0,7.063 -5.723,12.782 -12.773,12.782 -7.059,0 -12.786,-5.719 -12.786,-12.782 0,-7.058 5.727,-12.769 12.786,-12.769"
         style="fill:#100f0d;fill-opacity:1;fill-rule:nonzero;stroke:none"
         id="path706" /><path
         d="m 908.059,419.34 c 7.058,0 12.781,5.711 12.781,12.769 0,7.063 -5.723,12.782 -12.781,12.782 -7.051,0 -12.778,-5.719 -12.778,-12.782 0,-7.058 5.727,-12.769 12.778,-12.769"
         style="fill:#100f0d;fill-opacity:1;fill-rule:nonzero;stroke:none"
         id="path708" /><path
         d="m 1052.06,419.34 c 7.06,0 12.78,5.711 12.78,12.769 0,7.063 -5.72,12.782 -12.78,12.782 -7.06,0 -12.78,-5.719 -12.78,-12.782 0,-7.058 5.72,-12.769 12.78,-12.769"
         style="fill:#100f0d;fill-opacity:1;fill-rule:nonzero;stroke:none"
         id="path710" /><path
         d="m 1196.06,419.34 c 7.06,0 12.78,5.711 12.78,12.769 0,7.063 -5.72,12.782 -12.78,12.782 -7.06,0 -12.78,-5.719 -12.78,-12.782 0,-7.058 5.72,-12.769 12.78,-12.769"
         style="fill:#100f0d;fill-opacity:1;fill-rule:nonzero;stroke:none"
         id="path712" /><path
         d="m 1340.06,419.34 c 7.06,0 12.78,5.711 12.78,12.769 0,7.063 -5.72,12.782 -12.78,12.782 -7.05,0 -12.77,-5.719 -12.77,-12.782 0,-7.058 5.72,-12.769 12.77,-12.769"
         style="fill:#100f0d;fill-opacity:1;fill-rule:nonzero;stroke:none"
         id="path714" /><path
         d="m 1484.06,419.34 c 7.05,0 12.78,5.711 12.78,12.769 0,7.063 -5.73,12.782 -12.78,12.782 -7.06,0 -12.78,-5.719 -12.78,-12.782 0,-7.058 5.72,-12.769 12.78,-12.769"
         style="fill:#100f0d;fill-opacity:1;fill-rule:nonzero;stroke:none"
         id="path716" /><path
         d="m 1628.06,419.34 c 7.06,0 12.78,5.711 12.78,12.769 0,7.063 -5.72,12.782 -12.78,12.782 -7.05,0 -12.78,-5.719 -12.78,-12.782 0,-7.058 5.73,-12.769 12.78,-12.769"
         style="fill:#100f0d;fill-opacity:1;fill-rule:nonzero;stroke:none"
         id="path718" /><path
         d="m 1772.06,419.34 c 7.06,0 12.78,5.711 12.78,12.769 0,7.063 -5.72,12.782 -12.78,12.782 -7.06,0 -12.78,-5.719 -12.78,-12.782 0,-7.058 5.72,-12.769 12.78,-12.769"
         style="fill:#100f0d;fill-opacity:1;fill-rule:nonzero;stroke:none"
         id="path720" /><path
         d="m 1916.06,419.34 c 7.06,0 12.78,5.711 12.78,12.769 0,7.063 -5.72,12.782 -12.78,12.782 -7.06,0 -12.78,-5.719 -12.78,-12.782 0,-7.058 5.72,-12.769 12.78,-12.769"
         style="fill:#100f0d;fill-opacity:1;fill-rule:nonzero;stroke:none"
         id="path722" /><path
         d="m 2060.06,419.34 c 7.06,0 12.78,5.711 12.78,12.769 0,7.063 -5.72,12.782 -12.78,12.782 -7.05,0 -12.77,-5.719 -12.77,-12.782 0,-7.058 5.72,-12.769 12.77,-12.769"
         style="fill:#100f0d;fill-opacity:1;fill-rule:nonzero;stroke:none"
         id="path724" /><path
         d="m 2204.06,419.34 c 7.05,0 12.78,5.711 12.78,12.769 0,7.063 -5.73,12.782 -12.78,12.782 -7.06,0 -12.78,-5.719 -12.78,-12.782 0,-7.058 5.72,-12.769 12.78,-12.769"
         style="fill:#100f0d;fill-opacity:1;fill-rule:nonzero;stroke:none"
         id="path726" /><path
         d="m 2348.06,419.34 c 7.06,0 12.78,5.711 12.78,12.769 0,7.063 -5.72,12.782 -12.78,12.782 -7.05,0 -12.78,-5.719 -12.78,-12.782 0,-7.058 5.73,-12.769 12.78,-12.769"
         style="fill:#100f0d;fill-opacity:1;fill-rule:nonzero;stroke:none"
         id="path728" /><path
         d="m 2492.06,419.34 c 7.06,0 12.78,5.711 12.78,12.769 0,7.063 -5.72,12.782 -12.78,12.782 -7.06,0 -12.78,-5.719 -12.78,-12.782 0,-7.058 5.72,-12.769 12.78,-12.769"
         style="fill:#100f0d;fill-opacity:1;fill-rule:nonzero;stroke:none"
         id="path730" /><path
         d="m 2636.06,419.34 c 7.06,0 12.78,5.711 12.78,12.769 0,7.063 -5.72,12.782 -12.78,12.782 -7.06,0 -12.78,-5.719 -12.78,-12.782 0,-7.058 5.72,-12.769 12.78,-12.769"
         style="fill:#100f0d;fill-opacity:1;fill-rule:nonzero;stroke:none"
         id="path732" /><path
         d="m 2780.06,419.34 c 7.06,0 12.78,5.711 12.78,12.769 0,7.063 -5.72,12.782 -12.78,12.782 -7.05,0 -12.77,-5.719 -12.77,-12.782 0,-7.058 5.72,-12.769 12.77,-12.769"
         style="fill:#100f0d;fill-opacity:1;fill-rule:nonzero;stroke:none"
         id="path734" /><path
         d="m 44.0625,131.332 c 7.0508,0 12.7734,5.727 12.7734,12.777 0,7.063 -5.7226,12.782 -12.7734,12.782 -7.0586,0 -12.7812,-5.719 -12.7812,-12.782 0,-7.05 5.7226,-12.777 12.7812,-12.777"
         style="fill:#100f0d;fill-opacity:1;fill-rule:nonzero;stroke:none"
         id="path776" /><path
         d="m 188.059,131.332 c 7.058,0 12.781,5.727 12.781,12.777 0,7.063 -5.723,12.782 -12.781,12.782 -7.051,0 -12.778,-5.719 -12.778,-12.782 0,-7.05 5.727,-12.777 12.778,-12.777"
         style="fill:#100f0d;fill-opacity:1;fill-rule:nonzero;stroke:none"
         id="path778" /><path
         d="m 332.063,131.332 c 7.058,0 12.781,5.727 12.781,12.777 0,7.063 -5.723,12.782 -12.781,12.782 -7.063,0 -12.786,-5.719 -12.786,-12.782 0,-7.05 5.723,-12.777 12.786,-12.777"
         style="fill:#100f0d;fill-opacity:1;fill-rule:nonzero;stroke:none"
         id="path780" /><path
         d="m 476.063,131.332 c 7.05,0 12.777,5.727 12.777,12.777 0,7.063 -5.727,12.782 -12.777,12.782 -7.059,0 -12.782,-5.719 -12.782,-12.782 0,-7.05 5.723,-12.777 12.782,-12.777"
         style="fill:#100f0d;fill-opacity:1;fill-rule:nonzero;stroke:none"
         id="path782" /><path
         d="m 620.059,131.332 c 7.058,0 12.785,5.727 12.785,12.777 0,7.063 -5.727,12.782 -12.785,12.782 -7.051,0 -12.774,-5.719 -12.774,-12.782 0,-7.05 5.723,-12.777 12.774,-12.777"
         style="fill:#100f0d;fill-opacity:1;fill-rule:nonzero;stroke:none"
         id="path784" /><path
         d="m 764.063,131.332 c 7.05,0 12.773,5.727 12.773,12.777 0,7.063 -5.723,12.782 -12.773,12.782 -7.059,0 -12.786,-5.719 -12.786,-12.782 0,-7.05 5.727,-12.777 12.786,-12.777"
         style="fill:#100f0d;fill-opacity:1;fill-rule:nonzero;stroke:none"
         id="path786" /><path
         d="m 908.059,131.332 c 7.058,0 12.781,5.727 12.781,12.777 0,7.063 -5.723,12.782 -12.781,12.782 -7.051,0 -12.778,-5.719 -12.778,-12.782 0,-7.05 5.727,-12.777 12.778,-12.777"
         style="fill:#100f0d;fill-opacity:1;fill-rule:nonzero;stroke:none"
         id="path788" /><path
         d="m 1052.06,131.332 c 7.06,0 12.78,5.727 12.78,12.777 0,7.063 -5.72,12.782 -12.78,12.782 -7.06,0 -12.78,-5.719 -12.78,-12.782 0,-7.05 5.72,-12.777 12.78,-12.777"
         style="fill:#100f0d;fill-opacity:1;fill-rule:nonzero;stroke:none"
         id="path790" /><path
         d="m 1196.06,131.332 c 7.06,0 12.78,5.727 12.78,12.777 0,7.063 -5.72,12.782 -12.78,12.782 -7.06,0 -12.78,-5.719 -12.78,-12.782 0,-7.05 5.72,-12.777 12.78,-12.777"
         style="fill:#100f0d;fill-opacity:1;fill-rule:nonzero;stroke:none"
         id="path792" /><path
         d="m 1340.06,131.332 c 7.06,0 12.78,5.727 12.78,12.777 0,7.063 -5.72,12.782 -12.78,12.782 -7.05,0 -12.77,-5.719 -12.77,-12.782 0,-7.05 5.72,-12.777 12.77,-12.777"
         style="fill:#100f0d;fill-opacity:1;fill-rule:nonzero;stroke:none"
         id="path794" /><path
         d="m 1484.06,131.332 c 7.05,0 12.78,5.727 12.78,12.777 0,7.063 -5.73,12.782 -12.78,12.782 -7.06,0 -12.78,-5.719 -12.78,-12.782 0,-7.05 5.72,-12.777 12.78,-12.777"
         style="fill:#100f0d;fill-opacity:1;fill-rule:nonzero;stroke:none"
         id="path796" /><path
         d="m 1628.06,131.332 c 7.06,0 12.78,5.727 12.78,12.777 0,7.063 -5.72,12.782 -12.78,12.782 -7.05,0 -12.78,-5.719 -12.78,-12.782 0,-7.05 5.73,-12.777 12.78,-12.777"
         style="fill:#100f0d;fill-opacity:1;fill-rule:nonzero;stroke:none"
         id="path798" /><path
         d="m 1772.06,131.332 c 7.06,0 12.78,5.727 12.78,12.777 0,7.063 -5.72,12.782 -12.78,12.782 -7.06,0 -12.78,-5.719 -12.78,-12.782 0,-7.05 5.72,-12.777 12.78,-12.777"
         style="fill:#100f0d;fill-opacity:1;fill-rule:nonzero;stroke:none"
         id="path800" /><path
         d="m 1916.06,131.332 c 7.06,0 12.78,5.727 12.78,12.777 0,7.063 -5.72,12.782 -12.78,12.782 -7.06,0 -12.78,-5.719 -12.78,-12.782 0,-7.05 5.72,-12.777 12.78,-12.777"
         style="fill:#100f0d;fill-opacity:1;fill-rule:nonzero;stroke:none"
         id="path802" /><path
         d="m 2060.06,131.332 c 7.06,0 12.78,5.727 12.78,12.777 0,7.063 -5.72,12.782 -12.78,12.782 -7.05,0 -12.77,-5.719 -12.77,-12.782 0,-7.05 5.72,-12.777 12.77,-12.777"
         style="fill:#100f0d;fill-opacity:1;fill-rule:nonzero;stroke:none"
         id="path804" /><path
         d="m 2204.06,131.332 c 7.05,0 12.78,5.727 12.78,12.777 0,7.063 -5.73,12.782 -12.78,12.782 -7.06,0 -12.78,-5.719 -12.78,-12.782 0,-7.05 5.72,-12.777 12.78,-12.777"
         style="fill:#100f0d;fill-opacity:1;fill-rule:nonzero;stroke:none"
         id="path806" /><path
         d="m 2348.06,131.332 c 7.06,0 12.78,5.727 12.78,12.777 0,7.063 -5.72,12.782 -12.78,12.782 -7.05,0 -12.78,-5.719 -12.78,-12.782 0,-7.05 5.73,-12.777 12.78,-12.777"
         style="fill:#100f0d;fill-opacity:1;fill-rule:nonzero;stroke:none"
         id="path808" /><path
         d="m 2492.06,131.332 c 7.06,0 12.78,5.727 12.78,12.777 0,7.063 -5.72,12.782 -12.78,12.782 -7.06,0 -12.78,-5.719 -12.78,-12.782 0,-7.05 5.72,-12.777 12.78,-12.777"
         style="fill:#100f0d;fill-opacity:1;fill-rule:nonzero;stroke:none"
         id="path810" /><path
         d="m 2636.06,131.332 c 7.06,0 12.78,5.727 12.78,12.777 0,7.063 -5.72,12.782 -12.78,12.782 -7.06,0 -12.78,-5.719 -12.78,-12.782 0,-7.05 5.72,-12.777 12.78,-12.777"
         style="fill:#100f0d;fill-opacity:1;fill-rule:nonzero;stroke:none"
         id="path812" /><path
         d="m 2780.06,131.332 c 7.06,0 12.78,5.727 12.78,12.777 0,7.063 -5.72,12.782 -12.78,12.782 -7.05,0 -12.77,-5.719 -12.77,-12.782 0,-7.05 5.72,-12.777 12.77,-12.777"
         style="fill:#100f0d;fill-opacity:1;fill-rule:nonzero;stroke:none"
         id="path814" /></g></g></svg>
