<?xml version="1.0" encoding="UTF-8" standalone="no"?>
<svg
   xmlns:dc="http://purl.org/dc/elements/1.1/"
   xmlns:cc="http://creativecommons.org/ns#"
   xmlns:rdf="http://www.w3.org/1999/02/22-rdf-syntax-ns#"
   xmlns:svg="http://www.w3.org/2000/svg"
   xmlns="http://www.w3.org/2000/svg"
   xmlns:sodipodi="http://sodipodi.sourceforge.net/DTD/sodipodi-0.dtd"
   xmlns:inkscape="http://www.inkscape.org/namespaces/inkscape"
   width="200"
   height="200"
   viewBox="0 0 52.916665 52.916668"
   version="1.1"
   id="svg2487"
   inkscape:version="1.0.2 (e86c870879, 2021-01-15)"
   sodipodi:docname="sass.svg">
  <defs
     id="defs2481" />
  <sodipodi:namedview
     id="base"
     pagecolor="#ffffff"
     bordercolor="#666666"
     borderopacity="1.0"
     inkscape:pageopacity="0.0"
     inkscape:pageshadow="2"
     inkscape:zoom="1.4"
     inkscape:cx="71.005051"
     inkscape:cy="126.34957"
     inkscape:document-units="mm"
     inkscape:current-layer="g1389"
     inkscape:document-rotation="0"
     showgrid="false"
     units="px"
     inkscape:window-width="1342"
     inkscape:window-height="676"
     inkscape:window-x="0"
     inkscape:window-y="27"
     inkscape:window-maximized="0" />
  <metadata
     id="metadata2484">
    <rdf:RDF>
      <cc:Work
         rdf:about="">
        <dc:format>image/svg+xml</dc:format>
        <dc:type
           rdf:resource="http://purl.org/dc/dcmitype/StillImage" />
        <dc:title></dc:title>
      </cc:Work>
    </rdf:RDF>
  </metadata>
  <g
     inkscape:label="Capa 1"
     inkscape:groupmode="layer"
     id="layer1">
    <g
       id="g1389"
       transform="matrix(1.749463,0,0,1.749463,27.149915,26.714843)"
       style="stroke:#9c9c9c;stroke-opacity:1">
      <path
         fill="#cf649a"
         d="M 10.434523,0.88655341 C 9.4038386,0.89204963 8.5113488,1.1399031 7.7628051,1.5084725 7.4864262,0.96145811 7.2100381,0.48348577 7.1640344,0.12655011 7.1122779,-0.288023 7.0488789,-0.54142762 7.1122779,-1.0365664 c 0.063298,-0.4952398 0.3511738,-1.1977155 0.3511738,-1.2552979 -0.0055,-0.051757 -0.06339,-0.3051703 -0.6564082,-0.3109322 -0.5930179,-0.0055 -1.1055433,0.1151649 -1.1631166,0.2706263 -0.057619,0.1554706 -0.1727377,0.5124613 -0.2475967,0.8809759 C 5.2926892,-0.90994204 4.2101843,1.0074709 3.594082,2.015117 3.3925436,1.6235733 3.2198057,1.2780972 3.1851977,1.001654 3.1334412,0.58713591 3.0700421,0.33372221 3.1334412,-0.16140765 3.1968312,-0.65664722 3.4846791,-1.359068 3.4846791,-1.4166506 c -0.0055,-0.051756 -0.063298,-0.30517 -0.6563532,-0.310932 -0.5931278,-0.0055 -1.1055341,0.1151649 -1.1631166,0.2706263 -0.057528,0.1554706 -0.1209175,0.52398486 -0.2475969,0.88097564 C 1.29664,-0.21898091 -0.14285565,2.9824662 -0.51712286,3.8173742 -0.70713742,4.243462 -0.8740677,4.5831853 -0.99504017,4.8135056 c -0.12091753,0.2303204 -0.0055,0.017313 -0.017313,0.040307 -0.1036502,0.1957674 -0.1612233,0.3051703 -0.1612233,0.3051703 v 0.0055 c -0.080612,0.1439455 -0.1669853,0.2820846 -0.2073461,0.2820846 -0.028764,0 -0.086383,-0.385791 0.011542,-0.9154646 0.2130442,-1.1113512 0.73126735,-2.8444473 0.72556959,-2.9077825 0,-0.028763 0.0978241,-0.3340255 -0.33402546,-0.4894321 -0.42033503,-0.15547121 -0.56998873,0.1036406 -0.60459683,0.1036406 -0.034534,0 -0.063298,0.092126 -0.063298,0.092126 0,0 0.4664027,-1.95190191 -0.8924904,-1.95190191 -0.8521755,0 -2.0268158,0.9270343 -2.608365,1.77346611 -0.3685151,0.2015296 -1.1516025,0.6275623 -1.9807577,1.0824961 -0.3166941,0.1727473 -0.6449026,0.3569999 -0.9558257,0.5239851 l -0.063299,-0.069256 c -1.6467868,-1.7561893 -4.6927719,-2.99991753 -4.5661019,-5.3606948 0.04608,-0.8579373 0.345485,-3.1208353 5.8501913,-5.8616415 4.5085105,-2.2456216 8.1187778,-1.6295196 8.7463399,-0.2591117 0.8924903,1.9577188 -1.92892763,5.5967774 -6.6158831,6.1207532 -1.7849808,0.2015293 -2.7235846,-0.4894227 -2.9596029,-0.7485435 -0.2475968,-0.2706171 -0.28215,-0.2821409 -0.3742764,-0.2303112 -0.1497083,0.080612 -0.05762,0.3224467 0,0.4663935 0.1381937,0.3627526 0.7139905,1.007646 1.6928545,1.3301019 0.8578823,0.2821409 2.9538501,0.4376023 5.48737451,-0.5412615 2.83869459,-1.0997725 5.05551559,-4.1515108 4.40486039,-6.7023026 -0.6621701,-2.5968597 -4.9691514,-3.4490447 -9.0400504,-2.0037867 -2.4241763,0.863699 -5.0498268,2.2110687 -6.9384498,3.9787821 -2.245621,2.0959036 -2.602621,3.9269522 -2.452903,4.6870012 0.524031,2.71202413 4.260913,4.4797285 5.757992,5.786792 -0.074841,0.040214 -0.1439471,0.08052 -0.207291,0.115155 -0.748534,0.3684596 -3.598744,1.8598398 -4.312734,3.4374743 -0.806118,1.7849807 0.126669,3.0690706 0.748543,3.2418084 1.923166,0.535499 3.8923996,-0.4260879 4.9576279,-2.0095395 1.0594207,-1.5834515 0.9327963,-3.6390495 0.4433735,-4.5776077 l -0.017313,-0.034534 0.5873202,-0.3454852 c 0.3800839,-0.2245585 0.7543513,-0.4318495 1.0824957,-0.6104044 -0.1841977,0.5009467 -0.3166848,1.0940195 -0.3857267,1.9577187 -0.080611,1.0134629 0.3339703,2.3262337 0.8809755,2.8444571 0.2418352,0.2245031 0.529738,0.2303204 0.7082378,0.2303204 0.6333787,0 0.9212724,-0.5240406 1.2379665,-1.151602 0.3915436,-0.7658116 0.7370288,-1.6525492 0.7370288,-1.6525492 0,0 -0.4318495,2.4010832 0.7485345,2.4010832 0.4318496,0 0.8636992,-0.5585202 1.0594665,-0.8464229 v 0.0055 c 0,0 0.0115418,-0.017313 0.0346263,-0.05762 a 2.0803648,2.0803648 0 0 0 0.0690695,-0.1093384 V 6.1774893 C -0.60918496,5.8780654 -0.22339395,5.1928661 0.35240253,4.0585406 1.0951291,2.5960066 1.8091837,0.76495807 1.8091837,0.76495807 c 0,0 0.069069,0.44912613 0.282141,1.18614593 C 2.2179398,2.3887796 2.494328,2.8666327 2.7073627,3.3330355 2.534634,3.5748705 2.4309838,3.7131104 2.4309838,3.7131104 l 0.0055,0.0055 C 2.29835,3.9028593 2.1428245,4.0986907 1.981656,4.294403 1.3943358,4.9968789 0.69186929,5.7972978 0.59973371,6.0276183 0.49034006,6.2981805 0.5133511,6.4997096 0.72641315,6.6609966 0.88187459,6.7761617 1.1582628,6.7991367 1.4519183,6.7761617 1.981656,6.7415356 2.3501706,6.6091766 2.5344232,6.5285097 2.822326,6.4248599 3.1505255,6.2693985 3.4672195,6.0390781 4.043025,5.6130452 4.3942629,5.0084576 4.3597098,4.2023317 4.3423967,3.7589675 4.1984864,3.3213559 4.0199957,2.9067828 4.071844,2.8319419 4.1236923,2.7570185 4.1754573,2.6764624 c 0.909767,-1.3301567 1.6122336,-2.79262677 1.6122336,-2.79262677 0,0 0.06907,0.44911697 0.2821409,1.18614607 C 6.1791792,1.444249 6.3980405,1.8531241 6.593817,2.2561827 5.7416323,2.9529056 5.2061417,3.7590225 5.0218801,4.2887603 4.6821565,5.2676151 4.9470392,5.7109885 5.4479766,5.8146295 5.6724801,5.8607064 5.9949819,5.7570104 6.236762,5.6534061 6.5361795,5.5555179 6.8989319,5.3884776 7.2329483,5.1409449 7.8087539,4.7148479 8.361521,4.1217749 8.3327298,3.3214109 8.3154165,2.9529056 8.217565,2.590153 8.0851419,2.2446679 8.8106376,1.9452596 9.7491414,1.7725125 10.941103,1.9164592 c 2.562307,0.2994175 3.069015,1.9001456 2.971182,2.5680683 -0.09788,0.6679868 -0.633379,1.0364464 -0.811934,1.1516019 -0.178499,0.1094031 -0.236072,0.1497639 -0.218805,0.2303205 0.02299,0.1209724 0.10365,0.1151648 0.259112,0.09219 0.213043,-0.034626 1.347369,-0.5470145 1.393437,-1.7791639 0.06907,-1.5836803 -1.433744,-3.31107874 -4.099691,-3.29386641 z M -9.3269352,7.5485588 c -0.8464228,0.9270344 -2.0383218,1.2782727 -2.5450308,0.9788554 -0.547013,-0.3166943 -0.334016,-1.681331 0.708238,-2.6659566 0.633379,-0.5988258 1.4567728,-1.1515928 1.9980162,-1.4913163 0.1209179,-0.074841 0.3051794,-0.1841976 0.5239851,-0.3166847 0.034534,-0.022993 0.05762,-0.034534 0.05762,-0.034534 0.040307,-0.022993 0.086383,-0.051848 0.1324325,-0.080611 0.3857818,1.4049516 0.017313,2.637156 -0.875223,3.6102673 z M -3.1370849,3.3394569 C -3.4307403,4.0592094 -4.0526045,5.9075252 -4.4268717,5.8038843 -4.7493734,5.7175017 -4.9450949,4.318321 -4.4902618,2.9363986 -4.2599414,2.2396206 -3.7705093,1.4105293 -3.4826065,1.0880275 -3.016158,0.56980448 -2.5095136,0.39706643 -2.3827793,0.61011021 -2.2330613,0.88655341 -2.9528138,2.8903399 -3.1370756,3.3394569 Z M 1.9702605,5.7808457 C 1.8435813,5.8442357 1.7284255,5.8902572 1.676605,5.8557777 1.636298,5.8327847 1.728361,5.7463743 1.728361,5.7463743 c 0,0 0.6391406,-0.6851994 0.8924903,-1.0018933 C 2.764809,4.5602833 2.9375464,4.3472485 3.1217991,4.1053495 v 0.06907 C 3.1218443,5.003511 2.3272513,5.5562781 1.9702515,5.7808367 Z M 5.9086724,4.8826026 C 5.8165461,4.8135332 5.8281523,4.6004618 6.1390019,3.9325299 6.2599744,3.6676656 6.5362985,3.2243014 7.0142158,2.8039664 c 0.057528,0.1727381 0.09218,0.3396684 0.086383,0.4951848 -0.0055,1.0364462 -0.7427266,1.4222281 -1.1919077,1.5834514 z"
         id="path1391"
         style="fill:#9a9a9a;fill-opacity:1;stroke-width:0.0575796" />
    </g>
  </g>
</svg>
